<?xml version="1.0" encoding="UTF-8" standalone="no"?><svg xmlns="http://www.w3.org/2000/svg" xmlns:xlink="http://www.w3.org/1999/xlink" contentStyleType="text/css" height="137px" preserveAspectRatio="none" style="width:371px;height:137px;background:#FFFFFF;" version="1.1" viewBox="0 0 371 137" width="371px" zoomAndPan="magnify"><defs/><g><!--MD5=[e286d566be04fc29e201fc568a4213f8]
cluster org.patrodyne.jvnet.basicjaxb.ex001.model--><g id="cluster_org.patrodyne.jvnet.basicjaxb.ex001.model"><path d="M8.5,6 L351.5,6 A3.75,3.75 0 0 1 354,8.5 L361,28.2969 L361.5,28.2969 A2.5,2.5 0 0 1 364,30.7969 L364,127.5 A2.5,2.5 0 0 1 361.5,130 L8.5,130 A2.5,2.5 0 0 1 6,127.5 L6,8.5 A2.5,2.5 0 0 1 8.5,6 " style="stroke:#000000;stroke-width:1.5;fill:none;"/><line style="stroke:#000000;stroke-width:1.5;fill:none;" x1="6" x2="361" y1="28.2969" y2="28.2969"/><text fill="#000000" font-family="sans-serif" font-size="14" font-weight="bold" lengthAdjust="spacing" textLength="342" x="10" y="20.9951">org.patrodyne.jvnet.basicjaxb.ex001.model</text></g><!--MD5=[70f3e582ce47ef757c3b0a3bdd060ea9]
class org.patrodyne.jvnet.basicjaxb.ex001.model.ObjectFactory--><!--MD5=[28b249069723a3c68c7a124dc7739449]
class org.patrodyne.jvnet.basicjaxb.ex001.model.Person--><g id="elem_org.patrodyne.jvnet.basicjaxb.ex001.model.Person"><rect codeLine="6" fill="#F1F1F1" height="72.5938" id="org.patrodyne.jvnet.basicjaxb.ex001.model.Person" rx="2.5" ry="2.5" style="stroke:#181818;stroke-width:0.5;" width="144" x="31" y="41"/><ellipse cx="74.35" cy="57" fill="#ADD1B2" rx="11" ry="11" style="stroke:#181818;stroke-width:1.0;"/><path d="M77.3188,62.6406 Q76.7406,62.9375 76.1,63.0781 Q75.4594,63.2344 74.7563,63.2344 Q72.2563,63.2344 70.9281,61.5938 Q69.6156,59.9375 69.6156,56.8125 Q69.6156,53.6875 70.9281,52.0313 Q72.2563,50.375 74.7563,50.375 Q75.4594,50.375 76.1,50.5313 Q76.7563,50.6875 77.3188,50.9844 L77.3188,53.7031 Q76.6938,53.125 76.1,52.8594 Q75.5063,52.5781 74.8813,52.5781 Q73.5375,52.5781 72.85,53.6563 Q72.1625,54.7188 72.1625,56.8125 Q72.1625,58.9063 72.85,59.9844 Q73.5375,61.0469 74.8813,61.0469 Q75.5063,61.0469 76.1,60.7813 Q76.6938,60.5 77.3188,59.9219 L77.3188,62.6406 Z " fill="#000000"/><text fill="#000000" font-family="sans-serif" font-size="14" lengthAdjust="spacing" textLength="49" x="94.65" y="61.8467">Person</text><line style="stroke:#181818;stroke-width:0.5;" x1="32" x2="174" y1="73" y2="73"/><ellipse cx="42" cy="84" fill="none" rx="3" ry="3" style="stroke:#038048;stroke-width:1.0;"/><text fill="#000000" font-family="sans-serif" font-size="14" lengthAdjust="spacing" textLength="118" x="51" y="89.9951">firstName : String</text><ellipse cx="42" cy="100.2969" fill="none" rx="3" ry="3" style="stroke:#038048;stroke-width:1.0;"/><text fill="#000000" font-family="sans-serif" font-size="14" lengthAdjust="spacing" textLength="117" x="51" y="106.292">lastName : String</text></g><!--MD5=[708237ead251d4f8cff44282347d5c12]
@startuml

class org.patrodyne.jvnet.basicjaxb.ex001.model.ObjectFactory {
}


class org.patrodyne.jvnet.basicjaxb.ex001.model.Person {
	{field} +firstName : String
	{field} +lastName : String
}





hide methods
hide org.patrodyne.jvnet.basicjaxb.ex001.model.ObjectFactory

@enduml

PlantUML version 1.2022.5(Sat Apr 30 06:55:52 EDT 2022)
(GPL source distribution)
Java Runtime: OpenJDK Runtime Environment
JVM: OpenJDK 64-Bit Server VM
Default Encoding: UTF-8
Language: en
Country: US
--></g></svg>